<?xml version="1.0" encoding="UTF-8" standalone="no"?>
<!-- Created with Inkscape (http://www.inkscape.org/) -->

<svg
   width="255mm"
   height="255mm"
   viewBox="0 0 255 255"
   version="1.1"
   id="svg5"
   inkscape:export-filename="SWI-B-Classic.svg"
   inkscape:export-xdpi="96"
   inkscape:export-ydpi="96"
   sodipodi:docname="runa-R.svg"
   inkscape:version="1.2.2 (b0a8486541, 2022-12-01)"
   xmlns:inkscape="http://www.inkscape.org/namespaces/inkscape"
   xmlns:sodipodi="http://sodipodi.sourceforge.net/DTD/sodipodi-0.dtd"
   xmlns="http://www.w3.org/2000/svg"
   xmlns:svg="http://www.w3.org/2000/svg">
  <sodipodi:namedview
     id="namedview7"
     pagecolor="#ffffff"
     bordercolor="#000000"
     borderopacity="0.25"
     inkscape:showpageshadow="2"
     inkscape:pageopacity="0"
     inkscape:pagecheckerboard="true"
     inkscape:deskcolor="#d1d1d1"
     inkscape:document-units="mm"
     showgrid="false"
     showguides="false"
     inkscape:zoom="0.30741236"
     inkscape:cx="648.96545"
     inkscape:cy="639.20657"
     inkscape:window-width="1441"
     inkscape:window-height="551"
     inkscape:window-x="377"
     inkscape:window-y="254"
     inkscape:window-maximized="0"
     inkscape:current-layer="layer1">
    <inkscape:grid
       type="xygrid"
       id="grid7705" />
  </sodipodi:namedview>
  <defs
     id="defs2" />
  <g
     inkscape:label="Capa 1"
     inkscape:groupmode="layer"
     id="layer1">
    <g
       id="g11546"
       transform="matrix(-4.472611,0.05881034,0.09855406,-4.4242546,1023.5657,743.1447)"
       style="fill:#2979ff;fill-opacity:1">
      <g
         id="g11431"
         transform="rotate(150.76706,203.24382,151.08304)"
         style="fill:#2979ff;fill-opacity:1">
        <path
           style="fill:#2979ff;fill-opacity:1;stroke:#86103c;stroke-width:0;stroke-linecap:round;stroke-linejoin:round;stroke-dasharray:none;stroke-opacity:0;paint-order:markers fill stroke"
           id="path1903"
           sodipodi:type="arc"
           sodipodi:cx="188.08493"
           sodipodi:cy="136.05882"
           sodipodi:rx="6.8575649"
           sodipodi:ry="6.6644135"
           sodipodi:start="0"
           sodipodi:end="6.0213859"
           sodipodi:open="true"
           sodipodi:arc-type="arc"
           d="m 194.9425,136.05882 a 6.8575649,6.6644135 0 0 1 -6.40906,6.65015 6.8575649,6.6644135 0 0 1 -7.24741,-5.78027 6.8575649,6.6644135 0 0 1 5.46106,-7.40624 6.8575649,6.6644135 0 0 1 7.96174,4.81149"
           transform="matrix(0.9975885,0.06940599,0.07584967,0.99711926,0,0)" />
        <path
           style="fill:#2979ff;fill-opacity:1;stroke:#86103c;stroke-width:0;stroke-linecap:round;stroke-linejoin:round;stroke-dasharray:none;stroke-opacity:0;paint-order:markers fill stroke"
           id="path1903-1"
           sodipodi:type="arc"
           sodipodi:cx="196.96852"
           sodipodi:cy="140.61992"
           sodipodi:rx="7.0822706"
           sodipodi:ry="6.6087432"
           sodipodi:start="0"
           sodipodi:end="6.0213859"
           sodipodi:open="true"
           sodipodi:arc-type="arc"
           d="m 204.05079,140.61992 a 7.0822706,6.6087432 0 0 1 -6.61907,6.59459 7.0822706,6.6087432 0 0 1 -7.48488,-5.73198 7.0822706,6.6087432 0 0 1 5.64,-7.34437 7.0822706,6.6087432 0 0 1 8.22263,4.77129"
           transform="matrix(0.9975885,0.06940599,0.07584967,0.99711926,0,0)" />
        <path
           style="fill:#2979ff;fill-opacity:1;stroke:#86103c;stroke-width:0;stroke-linecap:round;stroke-linejoin:round;stroke-dasharray:none;stroke-opacity:0;paint-order:markers fill stroke"
           id="path1903-1-3"
           sodipodi:type="arc"
           sodipodi:cx="223.74579"
           sodipodi:cy="186.75258"
           sodipodi:rx="3.5640941"
           sodipodi:ry="4.0281291"
           sodipodi:start="0"
           sodipodi:end="6.0213859"
           sodipodi:open="true"
           sodipodi:arc-type="arc"
           d="m 227.30988,186.75258 a 3.5640941,4.0281291 0 0 1 -3.33099,4.0195 3.5640941,4.0281291 0 0 1 -3.7667,-3.49372 3.5640941,4.0281291 0 0 1 2.83828,-4.47651 3.5640941,4.0281291 0 0 1 4.13797,2.90817"
           transform="matrix(0.99607194,-0.08854765,-0.07989616,0.99680319,0,0)" />
        <path
           style="fill:#2979ff;fill-opacity:1;stroke:#86103c;stroke-width:0;stroke-linecap:round;stroke-linejoin:round;stroke-dasharray:none;stroke-opacity:0;paint-order:markers fill stroke"
           id="path1903-1-3-7"
           sodipodi:type="arc"
           sodipodi:cx="201.86154"
           sodipodi:cy="173.19211"
           sodipodi:rx="3.5640941"
           sodipodi:ry="4.0281291"
           sodipodi:start="0"
           sodipodi:end="6.0213859"
           sodipodi:open="true"
           sodipodi:arc-type="arc"
           d="m 205.42564,173.19211 a 3.5640941,4.0281291 0 0 1 -3.331,4.0195 3.5640941,4.0281291 0 0 1 -3.7667,-3.49373 3.5640941,4.0281291 0 0 1 2.83828,-4.4765 3.5640941,4.0281291 0 0 1 4.13797,2.90817"
           transform="matrix(0.99607194,-0.08854765,-0.07989616,0.99680319,0,0)" />
        <path
           style="fill:#2979ff;fill-opacity:1;stroke:#86103c;stroke-width:0;stroke-linecap:round;stroke-linejoin:round;stroke-dasharray:none;stroke-opacity:0;paint-order:markers fill stroke"
           id="path1903-1-3-5"
           sodipodi:type="arc"
           sodipodi:cx="216.96332"
           sodipodi:cy="191.31555"
           sodipodi:rx="3.8373365"
           sodipodi:ry="4.4043288"
           sodipodi:start="0"
           sodipodi:end="6.0213859"
           sodipodi:open="true"
           sodipodi:arc-type="arc"
           d="m 220.80065,191.31555 a 3.8373365,4.4043288 0 0 1 -3.58636,4.3949 3.8373365,4.4043288 0 0 1 -4.05548,-3.82002 3.8373365,4.4043288 0 0 1 3.05588,-4.89458 3.8373365,4.4043288 0 0 1 4.45521,3.17978"
           transform="matrix(0.99470745,-0.1027477,-0.09129044,0.99582431,0,0)" />
        <path
           style="fill:#2979ff;fill-opacity:1;stroke:#86103c;stroke-width:0;stroke-linecap:round;stroke-linejoin:round;stroke-dasharray:none;stroke-opacity:0;paint-order:markers fill stroke"
           id="path1903-1-3-5-9"
           sodipodi:type="arc"
           sodipodi:cx="211.44717"
           sodipodi:cy="189.49895"
           sodipodi:rx="3.8371434"
           sodipodi:ry="4.4652629"
           sodipodi:start="0"
           sodipodi:end="6.0213859"
           sodipodi:open="true"
           sodipodi:arc-type="arc"
           d="m 215.28432,189.49895 a 3.8371434,4.4652629 0 0 1 -3.58618,4.4557 3.8371434,4.4652629 0 0 1 -4.05528,-3.87287 3.8371434,4.4652629 0 0 1 3.05572,-4.9623 3.8371434,4.4652629 0 0 1 4.45499,3.22377"
           transform="matrix(0.99328655,-0.11567983,-0.10137287,0.9948485,0,0)" />
        <path
           style="fill:#2979ff;fill-opacity:1;stroke:#86103c;stroke-width:0;stroke-linecap:round;stroke-linejoin:round;stroke-dasharray:none;stroke-opacity:0;paint-order:markers fill stroke"
           id="path1903-1-2"
           sodipodi:type="arc"
           sodipodi:cx="200.47018"
           sodipodi:cy="155.62016"
           sodipodi:rx="6.3302145"
           sodipodi:ry="6.3970084"
           sodipodi:start="6.1701941"
           sodipodi:end="6.0213859"
           sodipodi:arc-type="slice"
           d="m 206.76003,154.89889 a 6.3302145,6.3970084 0 0 1 -5.34266,7.04627 6.3302145,6.3970084 0 0 1 -7.16658,-5.13323 6.3302145,6.3970084 0 0 1 4.80957,-7.42811 6.3302145,6.3970084 0 0 1 7.52434,4.58068 l -6.11452,1.65566 z" />
        <path
           style="fill:#2979ff;fill-opacity:1;stroke:#86103c;stroke-width:0;stroke-linecap:round;stroke-linejoin:round;stroke-dasharray:none;stroke-opacity:0;paint-order:markers fill stroke"
           d="m 192.52074,151.47434 c 1.23635,1.90815 1.32334,2.34632 1.55591,4.16515 l 2.92577,-3.09896 z"
           id="path6162"
           sodipodi:nodetypes="cccc" />
        <path
           style="fill:#2979ff;fill-opacity:1;stroke:#86103c;stroke-width:0;stroke-linecap:round;stroke-linejoin:round;stroke-dasharray:none;stroke-opacity:0;paint-order:markers fill stroke"
           d="m 203.08237,161.33675 c 2.49466,-0.99112 2.2973,-1.16005 4.44634,-0.99332 l -2.13533,-4.01485 z"
           id="path6162-6"
           sodipodi:nodetypes="cccc" />
      </g>
      <path
         style="fill:#2979ff;fill-opacity:1;stroke:#86103c;stroke-width:0;stroke-linecap:round;stroke-linejoin:round;stroke-dasharray:none;stroke-opacity:0;paint-order:markers fill stroke"
         d="m 200.52745,156.58731 c 2.25925,-0.85538 4.56505,-0.97924 6.97121,0.0264 l -2.30282,-4.8987 z"
         id="path11533"
         sodipodi:nodetypes="cccc" />
    </g>
  </g>
</svg>
