<?xml version="1.0" encoding="UTF-8" standalone="no"?>
<!-- Created with Inkscape (http://www.inkscape.org/) -->

<svg
   width="255mm"
   height="255mm"
   viewBox="0 0 255 255"
   version="1.1"
   id="svg5"
   inkscape:export-filename="SWI-B-Classic.svg"
   inkscape:export-xdpi="96"
   inkscape:export-ydpi="96"
   sodipodi:docname="ESC-R.-Cats.svg"
   inkscape:version="1.2.2 (b0a8486541, 2022-12-01)"
   xmlns:inkscape="http://www.inkscape.org/namespaces/inkscape"
   xmlns:sodipodi="http://sodipodi.sourceforge.net/DTD/sodipodi-0.dtd"
   xmlns="http://www.w3.org/2000/svg"
   xmlns:svg="http://www.w3.org/2000/svg">
  <sodipodi:namedview
     id="namedview7"
     pagecolor="#ffffff"
     bordercolor="#000000"
     borderopacity="0.25"
     inkscape:showpageshadow="2"
     inkscape:pageopacity="0"
     inkscape:pagecheckerboard="true"
     inkscape:deskcolor="#d1d1d1"
     inkscape:document-units="mm"
     showgrid="false"
     showguides="false"
     inkscape:zoom="0.30741236"
     inkscape:cx="468.42619"
     inkscape:cy="411.49939"
     inkscape:window-width="1441"
     inkscape:window-height="751"
     inkscape:window-x="468"
     inkscape:window-y="331"
     inkscape:window-maximized="0"
     inkscape:current-layer="layer1">
    <inkscape:grid
       type="xygrid"
       id="grid7705" />
  </sodipodi:namedview>
  <defs
     id="defs2">
    <clipPath
       clipPathUnits="userSpaceOnUse"
       id="clipPath22702">
      <rect
         style="fill:#e5286e;fill-opacity:1;stroke:#e1f5fe;stroke-width:21.8135;stroke-linecap:square;stroke-linejoin:round;stroke-miterlimit:0;stroke-opacity:0.352851;paint-order:stroke fill markers"
         id="rect22704"
         width="281.29987"
         height="21.475956"
         x="-11.977689"
         y="197.86409" />
    </clipPath>
  </defs>
  <g
     inkscape:label="Capa 1"
     inkscape:groupmode="layer"
     id="layer1">
    <rect
       style="fill:#ff1764;fill-opacity:1;stroke:#86103c;stroke-width:19.3445;stroke-linecap:round;stroke-linejoin:round;stroke-dasharray:none;stroke-opacity:1;paint-order:markers fill stroke"
       id="rect24616"
       width="235.5984"
       height="219.1835"
       x="10.166245"
       y="10.182137"
       ry="0"
       rx="0" />
    <rect
       style="fill:#fbe1eb;fill-opacity:1;stroke:#fbe2eb;stroke-width:10.3362;stroke-linecap:round;stroke-linejoin:round;stroke-dasharray:none;stroke-opacity:1;paint-order:markers fill stroke"
       id="rect24616-3-6-6"
       width="49.663776"
       height="33.371777"
       x="103.1681"
       y="175.72643"
       ry="0"
       rx="8.7775536" />
    <g
       id="g22874"
       clip-path="none">
      <rect
         style="fill:#e3dbdb;fill-opacity:1;stroke:#918c9e;stroke-width:20.255;stroke-linecap:round;stroke-linejoin:round;stroke-dasharray:none;stroke-opacity:1;paint-order:markers fill stroke"
         id="rect24616-6-9"
         width="111.70721"
         height="36.621578"
         x="10.24023"
         y="208.16954"
         ry="5.5086403"
         rx="0" />
      <rect
         style="fill:#e3dbdb;fill-opacity:1;stroke:#918c9e;stroke-width:20.255;stroke-linecap:round;stroke-linejoin:round;stroke-dasharray:none;stroke-opacity:1;paint-order:markers fill stroke"
         id="rect24616-6-6-3"
         width="111.70721"
         height="36.621578"
         x="133.2789"
         y="208.61446"
         ry="5.5086403"
         rx="0" />
    </g>
    <g
       id="g6432"
       transform="translate(5.9300305,-5.6606996)">
      <rect
         style="fill:#fbe1eb;fill-opacity:1;stroke:#fbe2eb;stroke-width:16.5061;stroke-linecap:round;stroke-linejoin:round;stroke-dasharray:none;stroke-opacity:1;paint-order:markers fill stroke"
         id="rect24616-3-6"
         width="65.386192"
         height="64.638878"
         x="137.65022"
         y="50.891048"
         ry="0"
         rx="11.556326" />
      <g
         id="g6426"
         transform="translate(-0.75815638,3.1750001)"
         style="fill:#fbe1eb;fill-opacity:1;stroke:#e62b71;stroke-width:20;stroke-dasharray:none;stroke-opacity:1">
        <path
           style="fill:#fbe1eb;fill-opacity:1;stroke:#ff1764;stroke-width:20;stroke-linecap:square;stroke-linejoin:round;stroke-miterlimit:0;stroke-dasharray:none;stroke-opacity:1;paint-order:markers stroke fill"
           d="m 187.07873,94.95594 c -9.43095,0.15483 -2.77602,-5.084111 -16.34385,4.395677 -13.89871,-10.942418 -7.46069,-4.748711 -16.02707,-4.680259 l 0.0927,-21.089485 c 0.22704,-6.627592 7.07555,-12.362143 15.86934,-14.213638 9.82949,1.682633 16.76832,9.961368 16.62517,15.012826 z"
           id="path6110"
           sodipodi:nodetypes="ccccccc" />
      </g>
    </g>
    <g
       id="g6432-3"
       transform="translate(-41.004467,90.835416)">
      <g
         id="g6426-7"
         transform="translate(-0.75815638,3.1750001)"
         style="fill:#fbe1eb;fill-opacity:1;stroke:#e62b71;stroke-width:20;stroke-dasharray:none;stroke-opacity:1" />
    </g>
    <path
       style="fill:#fce3ec;fill-opacity:1;stroke:#fce3ec;stroke-width:9.90054;stroke-linecap:round;stroke-linejoin:round;stroke-dasharray:none;stroke-opacity:1;paint-order:markers fill stroke"
       d="m 48.416157,52.849884 h 13.045052 v 31.022135 h 8.120063 L 54.773346,100.52959 40.294561,83.971623 h 8.166218 z"
       id="path1439-6-9-7-9"
       sodipodi:nodetypes="cccccccc" />
    <path
       style="fill:#fce3ec;fill-opacity:1;stroke:#fce3ec;stroke-width:9.90054;stroke-linecap:round;stroke-linejoin:round;stroke-dasharray:none;stroke-opacity:1;paint-order:markers fill stroke"
       d="m 94.386539,52.950479 h 13.045051 v 31.022134 h 8.12007 L 100.74372,100.63018 86.264943,84.072218 h 8.166218 z"
       id="path1439-6-9-7-9-5"
       sodipodi:nodetypes="cccccccc" />
    <text
       xml:space="preserve"
       style="font-size:3.175px;fill:#fff9fb;fill-opacity:1;stroke:#f087af;stroke-width:20;stroke-linecap:square;stroke-linejoin:round;stroke-miterlimit:0;stroke-dasharray:none;stroke-opacity:1;paint-order:markers stroke fill"
       x="70.0877"
       y="133.31332"
       id="text7347"><tspan
         sodipodi:role="line"
         id="tspan7345"
         style="stroke-width:20" /></text>
    <rect
       style="fill:#ff0b0b;fill-opacity:0.422243;stroke:#918c9e;stroke-width:0;stroke-linecap:square;stroke-linejoin:round;stroke-miterlimit:0;stroke-dasharray:none;stroke-opacity:1;paint-order:stroke markers fill"
       id="rect25237"
       width="0.052895192"
       height="2.2237153"
       x="269.12515"
       y="286.90125"
       ry="0.026447596" />
    <path
       style="fill:#86103c;fill-opacity:1;stroke:#86103c;stroke-width:22.8506;stroke-linecap:round;stroke-linejoin:round;stroke-opacity:0;paint-order:markers fill stroke"
       d="M 3.2274761,171.43881 58.211146,148.66254 27.243513,166.70268 Z"
       id="path1387-5"
       sodipodi:nodetypes="cccc" />
    <path
       style="fill:#86103c;fill-opacity:1;stroke:#86103c;stroke-width:22.8506;stroke-linecap:round;stroke-linejoin:round;stroke-opacity:0;paint-order:markers fill stroke"
       d="M 6.7218137,182.04821 72.304696,157.09043 c -12.469757,6.40669 -32.467177,17.59915 -46.846108,23.41162 l -6.303394,1.77679 z"
       id="path1387-5-6"
       sodipodi:nodetypes="ccccc" />
    <path
       style="fill:#86103c;fill-opacity:1;stroke:#86103c;stroke-width:20;stroke-linecap:round;stroke-linejoin:round;stroke-opacity:0;paint-order:markers fill stroke"
       d="M 109.55073,149.47399 -7.4583947,197.97151"
       id="path1713" />
    <path
       style="fill:#ff1764;fill-opacity:1;stroke:#86103c;stroke-width:0;stroke-linecap:round;stroke-linejoin:round;stroke-dasharray:none;stroke-opacity:0;paint-order:markers fill stroke"
       d="m 19.123744,182.35137 0.176597,-4.94965 -12.1749436,5.25606 z"
       id="path5696"
       sodipodi:nodetypes="cccc" />
    <path
       style="fill:#ff1764;fill-opacity:1;stroke:#86103c;stroke-width:0;stroke-linecap:round;stroke-linejoin:round;stroke-dasharray:none;stroke-opacity:0;paint-order:markers fill stroke"
       d="m 19.082354,168.23393 0.11864,-3.34092 -8.179118,3.54774 z"
       id="path5696-6"
       sodipodi:nodetypes="cccc" />
    <path
       style="fill:#ff1764;fill-opacity:1;stroke:#86103c;stroke-width:0;stroke-linecap:round;stroke-linejoin:round;stroke-dasharray:none;stroke-opacity:0;paint-order:markers fill stroke"
       d="m 219.83151,68.509408 0.1766,-4.949654 -12.17494,5.256064 z"
       id="path5696-2"
       sodipodi:nodetypes="cccc" />
    <path
       style="fill:#ff1764;fill-opacity:1;stroke:#86103c;stroke-width:0;stroke-linecap:round;stroke-linejoin:round;stroke-dasharray:none;stroke-opacity:0;paint-order:markers fill stroke"
       d="m 219.79012,54.391964 0.11864,-3.34092 -8.17911,3.54774 z"
       id="path5696-6-2"
       sodipodi:nodetypes="cccc" />
    <g
       id="g11546"
       transform="matrix(-1.3386678,-0.95761066,0.99371744,-1.2900272,329.94211,541.86596)"
       style="fill:#86103c;fill-opacity:1">
      <g
         id="g11431"
         transform="rotate(150.76706,203.24382,151.08304)"
         style="fill:#86103c;fill-opacity:1">
        <path
           style="fill:#86103c;fill-opacity:1;stroke:#86103c;stroke-width:0;stroke-linecap:round;stroke-linejoin:round;stroke-dasharray:none;stroke-opacity:0;paint-order:markers fill stroke"
           id="path1903"
           sodipodi:type="arc"
           sodipodi:cx="188.08493"
           sodipodi:cy="136.05882"
           sodipodi:rx="6.8575649"
           sodipodi:ry="6.6644135"
           sodipodi:start="0"
           sodipodi:end="6.0213859"
           sodipodi:open="true"
           sodipodi:arc-type="arc"
           d="m 194.9425,136.05882 a 6.8575649,6.6644135 0 0 1 -6.40906,6.65015 6.8575649,6.6644135 0 0 1 -7.24741,-5.78027 6.8575649,6.6644135 0 0 1 5.46106,-7.40624 6.8575649,6.6644135 0 0 1 7.96174,4.81149"
           transform="matrix(0.9975885,0.06940599,0.07584967,0.99711926,0,0)" />
        <path
           style="fill:#86103c;fill-opacity:1;stroke:#86103c;stroke-width:0;stroke-linecap:round;stroke-linejoin:round;stroke-dasharray:none;stroke-opacity:0;paint-order:markers fill stroke"
           id="path1903-1"
           sodipodi:type="arc"
           sodipodi:cx="196.96852"
           sodipodi:cy="140.61992"
           sodipodi:rx="7.0822706"
           sodipodi:ry="6.6087432"
           sodipodi:start="0"
           sodipodi:end="6.0213859"
           sodipodi:open="true"
           sodipodi:arc-type="arc"
           d="m 204.05079,140.61992 a 7.0822706,6.6087432 0 0 1 -6.61907,6.59459 7.0822706,6.6087432 0 0 1 -7.48488,-5.73198 7.0822706,6.6087432 0 0 1 5.64,-7.34437 7.0822706,6.6087432 0 0 1 8.22263,4.77129"
           transform="matrix(0.9975885,0.06940599,0.07584967,0.99711926,0,0)" />
        <path
           style="fill:#86103c;fill-opacity:1;stroke:#86103c;stroke-width:0;stroke-linecap:round;stroke-linejoin:round;stroke-dasharray:none;stroke-opacity:0;paint-order:markers fill stroke"
           id="path1903-1-3"
           sodipodi:type="arc"
           sodipodi:cx="223.74579"
           sodipodi:cy="186.75258"
           sodipodi:rx="3.5640941"
           sodipodi:ry="4.0281291"
           sodipodi:start="0"
           sodipodi:end="6.0213859"
           sodipodi:open="true"
           sodipodi:arc-type="arc"
           d="m 227.30988,186.75258 a 3.5640941,4.0281291 0 0 1 -3.33099,4.0195 3.5640941,4.0281291 0 0 1 -3.7667,-3.49372 3.5640941,4.0281291 0 0 1 2.83828,-4.47651 3.5640941,4.0281291 0 0 1 4.13797,2.90817"
           transform="matrix(0.99607194,-0.08854765,-0.07989616,0.99680319,0,0)" />
        <path
           style="fill:#86103c;fill-opacity:1;stroke:#86103c;stroke-width:0;stroke-linecap:round;stroke-linejoin:round;stroke-dasharray:none;stroke-opacity:0;paint-order:markers fill stroke"
           id="path1903-1-3-7"
           sodipodi:type="arc"
           sodipodi:cx="201.86154"
           sodipodi:cy="173.19211"
           sodipodi:rx="3.5640941"
           sodipodi:ry="4.0281291"
           sodipodi:start="0"
           sodipodi:end="6.0213859"
           sodipodi:open="true"
           sodipodi:arc-type="arc"
           d="m 205.42564,173.19211 a 3.5640941,4.0281291 0 0 1 -3.331,4.0195 3.5640941,4.0281291 0 0 1 -3.7667,-3.49373 3.5640941,4.0281291 0 0 1 2.83828,-4.4765 3.5640941,4.0281291 0 0 1 4.13797,2.90817"
           transform="matrix(0.99607194,-0.08854765,-0.07989616,0.99680319,0,0)" />
        <path
           style="fill:#86103c;fill-opacity:1;stroke:#86103c;stroke-width:0;stroke-linecap:round;stroke-linejoin:round;stroke-dasharray:none;stroke-opacity:0;paint-order:markers fill stroke"
           id="path1903-1-3-5"
           sodipodi:type="arc"
           sodipodi:cx="216.96332"
           sodipodi:cy="191.31555"
           sodipodi:rx="3.8373365"
           sodipodi:ry="4.4043288"
           sodipodi:start="0"
           sodipodi:end="6.0213859"
           sodipodi:open="true"
           sodipodi:arc-type="arc"
           d="m 220.80065,191.31555 a 3.8373365,4.4043288 0 0 1 -3.58636,4.3949 3.8373365,4.4043288 0 0 1 -4.05548,-3.82002 3.8373365,4.4043288 0 0 1 3.05588,-4.89458 3.8373365,4.4043288 0 0 1 4.45521,3.17978"
           transform="matrix(0.99470745,-0.1027477,-0.09129044,0.99582431,0,0)" />
        <path
           style="fill:#86103c;fill-opacity:1;stroke:#86103c;stroke-width:0;stroke-linecap:round;stroke-linejoin:round;stroke-dasharray:none;stroke-opacity:0;paint-order:markers fill stroke"
           id="path1903-1-3-5-9"
           sodipodi:type="arc"
           sodipodi:cx="211.44717"
           sodipodi:cy="189.49895"
           sodipodi:rx="3.8371434"
           sodipodi:ry="4.4652629"
           sodipodi:start="0"
           sodipodi:end="6.0213859"
           sodipodi:open="true"
           sodipodi:arc-type="arc"
           d="m 215.28432,189.49895 a 3.8371434,4.4652629 0 0 1 -3.58618,4.4557 3.8371434,4.4652629 0 0 1 -4.05528,-3.87287 3.8371434,4.4652629 0 0 1 3.05572,-4.9623 3.8371434,4.4652629 0 0 1 4.45499,3.22377"
           transform="matrix(0.99328655,-0.11567983,-0.10137287,0.9948485,0,0)" />
        <path
           style="fill:#86103c;fill-opacity:1;stroke:#86103c;stroke-width:0;stroke-linecap:round;stroke-linejoin:round;stroke-dasharray:none;stroke-opacity:0;paint-order:markers fill stroke"
           id="path1903-1-2"
           sodipodi:type="arc"
           sodipodi:cx="200.47018"
           sodipodi:cy="155.62016"
           sodipodi:rx="6.3302145"
           sodipodi:ry="6.3970084"
           sodipodi:start="6.1701941"
           sodipodi:end="6.0213859"
           sodipodi:arc-type="slice"
           d="m 206.76003,154.89889 a 6.3302145,6.3970084 0 0 1 -5.34266,7.04627 6.3302145,6.3970084 0 0 1 -7.16658,-5.13323 6.3302145,6.3970084 0 0 1 4.80957,-7.42811 6.3302145,6.3970084 0 0 1 7.52434,4.58068 l -6.11452,1.65566 z" />
        <path
           style="fill:#86103c;fill-opacity:1;stroke:#86103c;stroke-width:0;stroke-linecap:round;stroke-linejoin:round;stroke-dasharray:none;stroke-opacity:0;paint-order:markers fill stroke"
           d="m 192.52074,151.47434 c 1.23635,1.90815 1.32334,2.34632 1.55591,4.16515 l 2.92577,-3.09896 z"
           id="path6162"
           sodipodi:nodetypes="cccc" />
        <path
           style="fill:#86103c;fill-opacity:1;stroke:#86103c;stroke-width:0;stroke-linecap:round;stroke-linejoin:round;stroke-dasharray:none;stroke-opacity:0;paint-order:markers fill stroke"
           d="m 203.08237,161.33675 c 2.49466,-0.99112 2.2973,-1.16005 4.44634,-0.99332 l -2.13533,-4.01485 z"
           id="path6162-6"
           sodipodi:nodetypes="cccc" />
      </g>
      <path
         style="fill:#86103c;fill-opacity:1;stroke:#86103c;stroke-width:0;stroke-linecap:round;stroke-linejoin:round;stroke-dasharray:none;stroke-opacity:0;paint-order:markers fill stroke"
         d="m 200.52745,156.58731 c 2.25925,-0.85538 4.56505,-0.97924 6.97121,0.0264 l -2.30282,-4.8987 z"
         id="path11533"
         sodipodi:nodetypes="cccc" />
    </g>
  </g>
</svg>
