<?xml version="1.0" encoding="UTF-8" standalone="no"?>
<!-- Created with Inkscape (http://www.inkscape.org/) -->

<svg
   width="255mm"
   height="255mm"
   viewBox="0 0 255 255"
   version="1.1"
   id="svg5"
   inkscape:export-filename="SWI-B-Classic.svg"
   inkscape:export-xdpi="96"
   inkscape:export-ydpi="96"
   sodipodi:docname="KIN-R-Cats.svg"
   inkscape:version="1.2.2 (b0a8486541, 2022-12-01)"
   xmlns:inkscape="http://www.inkscape.org/namespaces/inkscape"
   xmlns:sodipodi="http://sodipodi.sourceforge.net/DTD/sodipodi-0.dtd"
   xmlns="http://www.w3.org/2000/svg"
   xmlns:svg="http://www.w3.org/2000/svg">
  <sodipodi:namedview
     id="namedview7"
     pagecolor="#ffffff"
     bordercolor="#000000"
     borderopacity="0.25"
     inkscape:showpageshadow="2"
     inkscape:pageopacity="0"
     inkscape:pagecheckerboard="true"
     inkscape:deskcolor="#d1d1d1"
     inkscape:document-units="mm"
     showgrid="false"
     showguides="false"
     inkscape:zoom="0.43474673"
     inkscape:cx="435.88597"
     inkscape:cy="409.43379"
     inkscape:window-width="1441"
     inkscape:window-height="752"
     inkscape:window-x="372"
     inkscape:window-y="124"
     inkscape:window-maximized="0"
     inkscape:current-layer="layer1">
    <inkscape:grid
       type="xygrid"
       id="grid7705" />
  </sodipodi:namedview>
  <defs
     id="defs2" />
  <g
     inkscape:label="Capa 1"
     inkscape:groupmode="layer"
     id="layer1">
    <rect
       style="fill:#ff1764;fill-opacity:1;stroke:#86103c;stroke-width:18.3027;stroke-linecap:round;stroke-linejoin:round;stroke-dasharray:none;stroke-opacity:1;paint-order:markers fill stroke"
       id="rect19400"
       width="236.69727"
       height="195.38931"
       x="9.1513672"
       y="34.697582"
       ry="97.694656" />
    <rect
       style="fill:#86103c;fill-opacity:1;stroke:#86103c;stroke-width:1.66207;stroke-linecap:round;stroke-linejoin:round;stroke-dasharray:none;stroke-opacity:1;paint-order:markers fill stroke"
       id="rect19400-6"
       width="19.528957"
       height="19.528955"
       x="32.701614"
       y="115.50291"
       ry="9.7644777" />
    <rect
       style="fill:#86103c;fill-opacity:1;stroke:#86103c;stroke-width:1.6705;stroke-linecap:round;stroke-linejoin:round;stroke-dasharray:none;stroke-opacity:1;paint-order:markers fill stroke"
       id="rect19400-6-2"
       width="27.09059"
       height="14.221163"
       x="113.62881"
       y="127.08668"
       ry="7.1105814" />
    <rect
       style="fill:#86103c;fill-opacity:1;stroke:#86103c;stroke-width:1.66207;stroke-linecap:round;stroke-linejoin:round;stroke-dasharray:none;stroke-opacity:1;paint-order:markers fill stroke"
       id="rect19400-6-1"
       width="19.528957"
       height="19.528955"
       x="203.03053"
       y="112.522"
       ry="9.7644777" />
    <path
       style="fill:#ff1764;fill-opacity:1;stroke:#86103c;stroke-width:20;stroke-linecap:round;stroke-linejoin:round;stroke-dasharray:none;stroke-opacity:1;paint-order:markers fill stroke"
       d="m 78.4286,136.7812 c -8.23505,0.46566 -10.31877,9.4304 -6.04816,15.06471 2.49435,2.92815 4.54816,3.23822 8.08847,4.39087 4.80188,1.56341 5.95758,2.04539 11.09276,2.311 7.02191,0.36321 14.23028,-0.22542 21.03004,-2.0799 2.04478,-0.55766 4.01673,-1.35557 6.00858,-2.07988 2.05855,-0.74856 4.88816,-1.53585 6.92293,-2.34681"
       id="path22099"
       sodipodi:nodetypes="ccssssc" />
    <rect
       style="fill:#ff1764;fill-opacity:1;stroke:#86103c;stroke-width:20;stroke-linecap:round;stroke-linejoin:round;stroke-dasharray:none;stroke-opacity:1;paint-order:markers fill stroke"
       id="rect22191"
       width="64.604332"
       height="64.604332"
       x="12.922989"
       y="177.3243"
       ry="18.606104"
       rx="32.302166" />
    <rect
       style="fill:#ff1764;fill-opacity:1;stroke:#86103c;stroke-width:20;stroke-linecap:round;stroke-linejoin:round;stroke-dasharray:none;stroke-opacity:1;paint-order:markers fill stroke"
       id="rect22191-3"
       width="64.604332"
       height="64.604332"
       x="178.6566"
       y="176.74944"
       ry="18.606104"
       rx="32.302166" />
    <path
       style="fill:#ff1764;fill-opacity:1;stroke:#86103c;stroke-width:19.3729;stroke-linecap:round;stroke-linejoin:round;stroke-dasharray:none;stroke-opacity:1;paint-order:markers fill stroke"
       d="m 173.54622,137.52282 c 7.97683,0.62453 9.99521,9.35206 5.85851,14.71975 -2.41615,2.78379 -5.04478,3.1207 -7.83484,4.08281 -3.43502,1.1845 -5.77079,1.85576 -10.74494,2.00488 -6.80173,0.20391 -13.78406,-0.5181 -20.37061,-2.45767 -1.98066,-0.58324 -3.89078,-1.39767 -5.82018,-2.14123 -1.994,-0.76845 -4.73488,-1.59065 -6.70585,-2.41904"
       id="path22099-1"
       sodipodi:nodetypes="ccasssc" />
    <path
       style="fill:#ff1764;fill-opacity:1;stroke:#86103c;stroke-width:20;stroke-linecap:round;stroke-linejoin:round;stroke-dasharray:none;stroke-opacity:1;paint-order:markers fill stroke"
       d="M 16.79338,91.569137 C 36.97407,53.539017 51.44614,37.627597 102.37224,33.991257 82.80866,20.492057 56.17385,6.4003374 17.859,16.299247 c -4.68487,23.03907 -8.23826,53.96157 -1.06562,75.26989 z"
       id="path22267"
       sodipodi:nodetypes="cccc" />
    <path
       style="fill:#ff1764;fill-opacity:1;stroke:#86103c;stroke-width:20.0748;stroke-linecap:round;stroke-linejoin:round;stroke-dasharray:none;stroke-opacity:1;paint-order:markers fill stroke"
       d="m 238.79163,89.924367 c -26.5814,-41.37261 -33.51049,-46.73005 -82.59749,-56.32632 19.72713,-13.48759 44.64201,-26.3771296 83.27717,-16.48672 4.72403,23.01925 6.55292,51.52304 -0.67968,72.81304 z"
       id="path22267-9"
       sodipodi:nodetypes="cccc" />
    <path
       style="fill:#e1f5fe;fill-opacity:1;stroke:none;stroke-width:20;stroke-linecap:round;stroke-linejoin:round;stroke-dasharray:none;stroke-opacity:1;paint-order:markers fill stroke"
       d="m 87.43806,218.77025 11.30423,1.78094 55.59143,0.23148 14.42655,-2.19825 0.0491,-24.78322 c -27.35099,-11.80688 -54.57228,-12.52956 -81.63645,0.17564 z"
       id="path25218"
       sodipodi:nodetypes="ccccccc" />
  </g>
</svg>
