<?xml version="1.0" encoding="UTF-8" standalone="no"?>
<svg
   height="24px"
   viewBox="0 -960 960 960"
   width="24px"
   fill="#FFFFFF"
   version="1.1"
   id="svg4"
   sodipodi:docname="currency.svg"
   inkscape:version="1.2.2 (b0a8486541, 2022-12-01)"
   xmlns:inkscape="http://www.inkscape.org/namespaces/inkscape"
   xmlns:sodipodi="http://sodipodi.sourceforge.net/DTD/sodipodi-0.dtd"
   xmlns="http://www.w3.org/2000/svg"
   xmlns:svg="http://www.w3.org/2000/svg">
  <defs
     id="defs8" />
  <sodipodi:namedview
     id="namedview6"
     pagecolor="#ffffff"
     bordercolor="#000000"
     borderopacity="0.25"
     inkscape:showpageshadow="2"
     inkscape:pageopacity="0.0"
     inkscape:pagecheckerboard="0"
     inkscape:deskcolor="#d1d1d1"
     showgrid="false"
     inkscape:zoom="32"
     inkscape:cx="9.8125"
     inkscape:cy="12.46875"
     inkscape:window-width="1920"
     inkscape:window-height="1012"
     inkscape:window-x="0"
     inkscape:window-y="0"
     inkscape:window-maximized="1"
     inkscape:current-layer="svg4" />
  <g
     id="g1914">
    <path
       id="path2"
       style="fill:#ffcf00;fill-opacity:1"
       d="m 480,-880 c -55.33328,0 -107.34901,10.4844 -156.01562,31.48438 -48.66662,20.99997 -90.95317,49.54691 -126.95313,85.54687 -35.99996,35.99996 -64.5469,78.28651 -85.54687,126.95313 C 90.484396,-587.34901 80,-535.33328 80,-480 c 0,55.33328 10.484396,107.34901 31.48438,156.01562 20.99997,48.66662 49.54691,90.95317 85.54687,126.95313 35.99996,35.99996 78.28651,64.5469 126.95313,85.54687 C 372.65099,-90.484396 424.66672,-80 480,-80 c 55.33328,0 107.34901,-10.484396 156.01562,-31.48438 48.66662,-20.99997 90.95317,-49.54691 126.95313,-85.54687 35.99996,-35.99996 64.5469,-78.28651 85.54687,-126.95313 C 869.5156,-372.65099 880,-424.66672 880,-480 c 0,-55.33328 -10.4844,-107.34901 -31.48438,-156.01562 -20.99997,-48.66662 -49.54691,-90.95317 -85.54687,-126.95313 -35.99996,-35.99996 -78.28651,-64.5469 -126.95313,-85.54687 C 587.34901,-869.5156 535.33328,-880 480,-880 Z m 1.09375,33.90625 c 12.34029,-0.0751 24.27451,0.67765 33.90625,2.57813 v 50.07812 c 61.12787,6.27001 115.2757,28.42167 162.42188,66.40625 l 32.65624,-32.57813 c 17.91457,13.38881 38.59757,33.22224 49.53126,49.53126 l -32.65626,32.65624 C 764.9548,-630.26757 787.16595,-576.14285 793.4375,-515 h 47.03125 c 3.2002,22.13479 3.801,50.73653 0,70 H 793.4375 c -6.27001,61.12787 -28.42167,115.2757 -66.40625,162.42188 l 32.57813,32.65624 c -13.38888,17.91455 -33.22228,38.59763 -49.53126,49.53126 l -32.65624,-32.65626 C 630.26757,-195.0452 576.14285,-172.83405 515,-166.5625 v 43.98438 c -22.13479,3.20015 -50.73653,3.80094 -70,0 v -43.98438 c -61.12787,-6.27001 -115.2757,-28.42167 -162.42188,-66.40625 l -32.65624,32.57813 c -17.91455,-13.38888 -38.59763,-33.22228 -49.53126,-49.53126 l 32.65626,-32.65624 C 195.0452,-329.73243 172.83405,-383.85715 166.5625,-445 h -47.03125 c -3.20017,-22.13479 -3.80096,-50.73653 0,-70 h 47.03125 c 6.27001,-61.12787 28.42167,-115.2757 66.40625,-162.42188 l -32.57813,-32.65624 c 13.38881,-17.91453 33.22224,-38.59761 49.53126,-49.53126 l 32.65624,32.65626 C 329.73243,-764.9548 383.85715,-787.16595 445,-793.4375 v -50.07812 c 11.06739,-1.60009 23.75346,-2.50303 36.09375,-2.57813 z"
       sodipodi:nodetypes="ssssssssssssssssssccccccccccccccccccccccccccccccccs" />
    <path
       style="fill:#ffcf00;fill-opacity:1;stroke:none;stroke-width:1414.82;stroke-linecap:round;stroke-linejoin:round;stroke-opacity:1;paint-order:stroke markers fill"
       d="m 379.976,-918.93022 c 68.38041,-19.21717 148.59319,-14.85722 200,0 l 0.048,52.94792 -200.04799,-0.15507 z"
       id="path1231"
       sodipodi:nodetypes="ccccc" />
    <path
       style="fill:#ffcf00;fill-opacity:1;stroke:none;stroke-width:1414.82;stroke-linecap:round;stroke-linejoin:round;stroke-opacity:1;paint-order:stroke markers fill"
       d="m 580.024,-47.171622 c -68.38041,19.21717 -148.59319,14.85722 -200,0 l -0.048,-52.947918 200.04799,0.155068 z"
       id="path1231-1"
       sodipodi:nodetypes="ccccc" />
    <path
       style="fill:#ffcf00;fill-opacity:1;stroke:none;stroke-width:1414.82;stroke-linecap:round;stroke-linejoin:round;stroke-opacity:1;paint-order:stroke markers fill"
       d="m 915.8793,-580.024 c 19.2172,68.38041 14.8572,148.59319 0,200 l -52.9479,0.048 0.1551,-200.04799 z"
       id="path1231-7"
       sodipodi:nodetypes="ccccc" />
    <path
       style="fill:#ffcf00;fill-opacity:1;stroke:none;stroke-width:1414.82;stroke-linecap:round;stroke-linejoin:round;stroke-opacity:1;paint-order:stroke markers fill"
       d="m 44.120698,-379.976 c -19.21717,-68.38041 -14.85722,-148.59319 0,-200 l 52.94792,-0.048 -0.15507,200.04799 z"
       id="path1231-1-9"
       sodipodi:nodetypes="ccccc" />
    <path
       style="fill:#ffcf00;fill-opacity:1;stroke:none;stroke-width:1414.82;stroke-linecap:round;stroke-linejoin:round;stroke-opacity:1;paint-order:stroke markers fill"
       d="m 858.94088,-242.51444 c -34.7637,61.94086 -94.5657,115.57688 -141.4214,141.42135 l -37.4738,-37.40587 141.565,-141.34562 z"
       id="path1231-7-6"
       sodipodi:nodetypes="ccccc" />
    <path
       style="fill:#ffcf00;fill-opacity:1;stroke:none;stroke-width:1414.82;stroke-linecap:round;stroke-linejoin:round;stroke-opacity:1;paint-order:stroke markers fill"
       d="m 101.05912,-717.48556 c 34.76366,-61.94084 94.56561,-115.5769 141.42136,-141.42136 l 37.47377,37.40589 -141.56494,141.34564 z"
       id="path1231-1-9-6"
       sodipodi:nodetypes="ccccc" />
    <path
       style="fill:#ffcf00;fill-opacity:1;stroke:none;stroke-width:1414.82;stroke-linecap:round;stroke-linejoin:round;stroke-opacity:1;paint-order:stroke markers fill"
       d="m 242.51444,-101.05912 c -61.94086,-34.7637 -115.57688,-94.5657 -141.42134,-141.4214 l 37.40586,-37.4738 141.34564,141.565 z"
       id="path1231-7-6-6"
       sodipodi:nodetypes="ccccc" />
    <path
       style="fill:#ffcf00;fill-opacity:1;stroke:none;stroke-width:1414.82;stroke-linecap:round;stroke-linejoin:round;stroke-opacity:1;paint-order:stroke markers fill"
       d="m 717.4856,-858.94088 c 61.9408,34.76366 115.5769,94.56561 141.4213,141.42136 l -37.4059,37.47377 -141.3456,-141.56494 z"
       id="path1231-1-9-6-8"
       sodipodi:nodetypes="ccccc" />
    <path
       d="m 450.82755,-670.02017 v 35.05231 c -23.36818,5.14105 -41.62827,15.41208 -54.71446,30.83509 -13.08618,15.42302 -19.60738,32.70458 -19.60738,51.86648 0,21.96609 6.42627,39.73691 19.27877,53.29045 12.8525,13.55353 33.05508,25.23766 60.62954,35.05233 29.44389,10.74936 49.89116,20.34129 61.34156,28.75384 11.45039,8.41255 17.1975,19.41754 17.1975,32.97108 0,15.423 -5.50244,26.71279 -16.48552,33.95692 -10.98308,7.24414 -24.17516,10.89908 -39.59817,10.89908 -15.42295,0 -29.10437,-4.82335 -41.02214,-14.40431 -11.91777,-9.58095 -20.68087,-23.94147 -26.28923,-43.10338 l -46.28,18.23815 c 6.54309,22.43346 16.71923,40.54385 30.50646,54.33108 13.78723,13.78723 31.65298,23.22946 53.61908,28.37046 v 36.47631 h 49.07325 v -35.05231 c 23.36818,-4.20627 43.4758,-13.30893 60.3009,-27.32985 16.82511,-14.02091 25.2486,-34.8077 25.2486,-62.38215 0,-19.62927 -5.59743,-37.64474 -16.8141,-54.00246 -11.21674,-16.35773 -33.66122,-30.62335 -67.31144,-42.77479 -28.04178,-9.34726 -47.47031,-17.52616 -58.21967,-24.53662 -10.74937,-7.01046 -16.10216,-16.60238 -16.10216,-28.75383 0,-12.15144 4.33408,-21.68861 12.98031,-28.69907 8.64623,-7.01047 21.1592,-10.5157 37.51689,-10.5157 14.9557,0 26.63982,3.60016 35.05238,10.84428 8.41248,7.24419 14.44442,16.25193 18.18338,27.00128 l 44.91077,-18.23821 c -5.14105,-16.35772 -14.63805,-30.62331 -28.42525,-42.77475 -13.78726,-12.15144 -29.07154,-18.91731 -45.89665,-20.3194 v -35.05231 z"
       style="fill:#ffcf00;fill-opacity:1;stroke-width:24.72;stroke-dasharray:none;stroke:#ffcf00;stroke-opacity:1;stroke-linejoin:bevel"
       id="path529" />
  </g>
</svg>
