<?xml version="1.0" encoding="UTF-8" standalone="no"?>
<!-- Created with Inkscape (http://www.inkscape.org/) -->

<svg
   width="255mm"
   height="255mm"
   viewBox="0 0 255 255"
   version="1.1"
   id="svg5"
   inkscape:export-filename="SWI-B-Classic.svg"
   inkscape:export-xdpi="96"
   inkscape:export-ydpi="96"
   sodipodi:docname="KIN-B-Cats.svg"
   inkscape:version="1.2.2 (b0a8486541, 2022-12-01)"
   xmlns:inkscape="http://www.inkscape.org/namespaces/inkscape"
   xmlns:sodipodi="http://sodipodi.sourceforge.net/DTD/sodipodi-0.dtd"
   xmlns="http://www.w3.org/2000/svg"
   xmlns:svg="http://www.w3.org/2000/svg">
  <sodipodi:namedview
     id="namedview7"
     pagecolor="#ffffff"
     bordercolor="#000000"
     borderopacity="0.25"
     inkscape:showpageshadow="2"
     inkscape:pageopacity="0"
     inkscape:pagecheckerboard="true"
     inkscape:deskcolor="#d1d1d1"
     inkscape:document-units="mm"
     showgrid="false"
     showguides="false"
     inkscape:zoom="0.61482472"
     inkscape:cx="504.20874"
     inkscape:cy="510.71466"
     inkscape:window-width="1441"
     inkscape:window-height="752"
     inkscape:window-x="453"
     inkscape:window-y="191"
     inkscape:window-maximized="0"
     inkscape:current-layer="layer1">
    <inkscape:grid
       type="xygrid"
       id="grid7705" />
  </sodipodi:namedview>
  <defs
     id="defs2" />
  <g
     inkscape:label="Capa 1"
     inkscape:groupmode="layer"
     id="layer1">
    <rect
       style="fill:#2979ff;fill-opacity:1;stroke:#1b418a;stroke-width:18.3027;stroke-linecap:round;stroke-linejoin:round;stroke-dasharray:none;stroke-opacity:1;paint-order:markers fill stroke"
       id="rect19400"
       width="236.69727"
       height="195.38931"
       x="8.936203"
       y="36.295563"
       ry="97.694656" />
    <rect
       style="fill:#1b418a;fill-opacity:1;stroke:#1b418a;stroke-width:1.66207;stroke-linecap:round;stroke-linejoin:round;stroke-dasharray:none;stroke-opacity:1;paint-order:markers fill stroke"
       id="rect19400-6"
       width="19.528957"
       height="19.528955"
       x="32.486458"
       y="117.10088"
       ry="9.7644777" />
    <rect
       style="fill:#1b418a;fill-opacity:1;stroke:#1b418a;stroke-width:1.6705;stroke-linecap:round;stroke-linejoin:round;stroke-dasharray:none;stroke-opacity:1;paint-order:markers fill stroke"
       id="rect19400-6-2"
       width="27.09059"
       height="14.221163"
       x="113.41365"
       y="128.68465"
       ry="7.1105814" />
    <rect
       style="fill:#1b418a;fill-opacity:1;stroke:#1b418a;stroke-width:1.66207;stroke-linecap:round;stroke-linejoin:round;stroke-dasharray:none;stroke-opacity:1;paint-order:markers fill stroke"
       id="rect19400-6-1"
       width="19.528957"
       height="19.528955"
       x="202.81537"
       y="114.11997"
       ry="9.7644777" />
    <path
       style="fill:#2979ff;fill-opacity:1;stroke:#1b418a;stroke-width:20;stroke-linecap:round;stroke-linejoin:round;stroke-dasharray:none;stroke-opacity:1;paint-order:markers fill stroke"
       d="m 78.213429,138.37917 c -8.235049,0.46566 -10.318767,9.4304 -6.048155,15.06471 2.494351,2.92815 4.548161,3.23822 8.088463,4.39087 4.801886,1.56341 5.957586,2.04539 11.092767,2.311 7.021908,0.36321 14.230276,-0.22542 21.030036,-2.0799 2.04478,-0.55766 4.01673,-1.35557 6.00858,-2.07988 2.05855,-0.74856 4.88816,-1.53585 6.92293,-2.34681"
       id="path22099"
       sodipodi:nodetypes="ccssssc" />
    <rect
       style="fill:#2979ff;fill-opacity:1;stroke:#1b418a;stroke-width:20;stroke-linecap:round;stroke-linejoin:round;stroke-dasharray:none;stroke-opacity:1;paint-order:markers fill stroke"
       id="rect22191"
       width="64.604332"
       height="64.604332"
       x="12.707829"
       y="178.92227"
       ry="18.606104"
       rx="32.302166" />
    <rect
       style="fill:#2979ff;fill-opacity:1;stroke:#1b418a;stroke-width:20;stroke-linecap:round;stroke-linejoin:round;stroke-dasharray:none;stroke-opacity:1;paint-order:markers fill stroke"
       id="rect22191-3"
       width="64.604332"
       height="64.604332"
       x="178.44144"
       y="178.34741"
       ry="18.606104"
       rx="32.302166" />
    <path
       style="fill:#2979ff;fill-opacity:1;stroke:#1b418a;stroke-width:19.3729;stroke-linecap:round;stroke-linejoin:round;stroke-dasharray:none;stroke-opacity:1;paint-order:markers fill stroke"
       d="m 173.33106,139.12079 c 7.97683,0.62453 9.99521,9.35206 5.85851,14.71975 -2.41615,2.78379 -5.04478,3.1207 -7.83484,4.08281 -3.43502,1.1845 -5.77079,1.85576 -10.74494,2.00488 -6.80174,0.20391 -13.78407,-0.5181 -20.37062,-2.45767 -1.98066,-0.58324 -3.89078,-1.39767 -5.82018,-2.14123 -1.994,-0.76845 -4.73488,-1.59065 -6.70585,-2.41904"
       id="path22099-1"
       sodipodi:nodetypes="ccasssc" />
    <path
       style="fill:#2979ff;fill-opacity:1;stroke:#1b418a;stroke-width:20;stroke-linecap:round;stroke-linejoin:round;stroke-dasharray:none;stroke-opacity:1;paint-order:markers fill stroke"
       d="M 16.578213,93.16711 C 36.758899,55.136986 51.230973,39.225562 102.15707,35.589229 82.593496,22.090029 55.958678,7.9983024 17.643831,17.897217 12.958962,40.936287 9.4055754,71.85879 16.578213,93.16711 Z"
       id="path22267"
       sodipodi:nodetypes="cccc" />
    <path
       style="fill:#2979ff;fill-opacity:1;stroke:#1b418a;stroke-width:20.0748;stroke-linecap:round;stroke-linejoin:round;stroke-dasharray:none;stroke-opacity:1;paint-order:markers fill stroke"
       d="M 238.57647,91.522341 C 211.99507,50.149725 205.06598,44.792286 155.97898,35.19602 175.70611,21.708429 200.62099,8.8188912 239.25615,18.709294 c 4.72403,23.019256 6.55292,51.523039 -0.67968,72.813047 z"
       id="path22267-9"
       sodipodi:nodetypes="cccc" />
    <path
       style="fill:#e1f5fe;fill-opacity:1;stroke:none;stroke-width:20;stroke-linecap:round;stroke-linejoin:round;stroke-dasharray:none;stroke-opacity:1;paint-order:markers fill stroke"
       d="m 87.222892,220.36822 11.304231,1.78094 55.591427,0.23148 14.42656,-2.19825 0.0491,-24.78322 c -27.351,-11.80688 -54.57229,-12.52956 -81.636454,0.17564 z"
       id="path25218"
       sodipodi:nodetypes="ccccccc" />
  </g>
</svg>
